<?xml version="1.0" encoding="utf-8" standalone="no"?>
<!DOCTYPE svg PUBLIC "-//W3C//DTD SVG 1.1//EN"
  "http://www.w3.org/Graphics/SVG/1.1/DTD/svg11.dtd">
<svg xmlns:xlink="http://www.w3.org/1999/xlink" width="216pt" height="576pt" viewBox="0 0 216 576" xmlns="http://www.w3.org/2000/svg" version="1.1">
 <metadata>
  <rdf:RDF xmlns:dc="http://purl.org/dc/elements/1.1/" xmlns:cc="http://creativecommons.org/ns#" xmlns:rdf="http://www.w3.org/1999/02/22-rdf-syntax-ns#">
   <cc:Work>
    <dc:type rdf:resource="http://purl.org/dc/dcmitype/StillImage"/>
    <dc:date>2023-09-14T08:17:04.286432</dc:date>
    <dc:format>image/svg+xml</dc:format>
    <dc:creator>
     <cc:Agent>
      <dc:title>Matplotlib v3.7.1, https://matplotlib.org/</dc:title>
     </cc:Agent>
    </dc:creator>
   </cc:Work>
  </rdf:RDF>
 </metadata>
 <defs>
  <style type="text/css">*{stroke-linejoin: round; stroke-linecap: butt}</style>
 </defs>
 <g id="figure_1">
  <g id="patch_1">
   <path d="M 0 576 
L 216 576 
L 216 0 
L 0 0 
z
" style="fill: #ffffff"/>
  </g>
  <g id="axes_1">
   <g id="patch_2">
    <path d="M 54.95375 527.505625 
L 203.04 527.505625 
L 203.04 17.254687 
L 54.95375 17.254687 
z
" style="fill: #ffffff"/>
   </g>
   <g id="matplotlib.axis_1">
    <g id="xtick_1">
     <g id="line2d_1">
      <defs>
       <path id="m77075c8e4e" d="M 0 0 
L 0 3.5 
" style="stroke: #000000; stroke-width: 0.8"/>
      </defs>
      <g>
       <use xlink:href="#m77075c8e4e" x="66.98961" y="527.505625" style="stroke: #000000; stroke-width: 0.8"/>
      </g>
     </g>
     <g id="text_1">
      <text style="font: 12px 'Arial', sans-serif; text-anchor: middle" x="66.98961" y="543.095" transform="rotate(-0 66.98961 543.095)">998</text>
     </g>
    </g>
    <g id="xtick_2">
     <g id="line2d_2">
      <g>
       <use xlink:href="#m77075c8e4e" x="110.297858" y="527.505625" style="stroke: #000000; stroke-width: 0.8"/>
      </g>
     </g>
     <g id="text_2">
      <text style="font: 12px 'Arial', sans-serif; text-anchor: middle" x="110.297858" y="543.095" transform="rotate(-0 110.297858 543.095)">999</text>
     </g>
    </g>
    <g id="xtick_3">
     <g id="line2d_3">
      <g>
       <use xlink:href="#m77075c8e4e" x="153.606106" y="527.505625" style="stroke: #000000; stroke-width: 0.8"/>
      </g>
     </g>
     <g id="text_3">
      <text style="font: 12px 'Arial', sans-serif; text-anchor: middle" x="153.606106" y="543.095" transform="rotate(-0 153.606106 543.095)">1000</text>
     </g>
    </g>
    <g id="xtick_4">
     <g id="line2d_4">
      <g>
       <use xlink:href="#m77075c8e4e" x="196.914354" y="527.505625" style="stroke: #000000; stroke-width: 0.8"/>
      </g>
     </g>
     <g id="text_4">
      <text style="font: 12px 'Arial', sans-serif; text-anchor: middle" x="196.914354" y="543.095" transform="rotate(-0 196.914354 543.095)">1001</text>
     </g>
    </g>
    <g id="text_5">
     <!-- Density [kg m$^{-3}$] -->
     <g transform="translate(84.536875 560.4)">
      <text>
       <tspan style="font: 12px 'Arial'" x="0 8.666016 15.339844 22.013672 28.013672 30.679688 34.013672 40.013672 43.347656 46.681641 52.681641 59.355469 62.689453 85.511133" y="-0.171875">Density [kg m]</tspan>
       <tspan style="font: 8.4px 'DejaVu Sans'" x="72.800391 79.838672" y="-4.765625">−3</tspan>
      </text>
     </g>
    </g>
   </g>
   <g id="matplotlib.axis_2">
    <g id="ytick_1">
     <g id="line2d_5">
      <defs>
       <path id="mdf13412aa4" d="M 0 0 
L -3.5 0 
" style="stroke: #000000; stroke-width: 0.8"/>
      </defs>
      <g>
       <use xlink:href="#mdf13412aa4" x="54.95375" y="17.254687" style="stroke: #000000; stroke-width: 0.8"/>
      </g>
     </g>
     <g id="text_6">
      <text style="font: 12px 'Arial', sans-serif; text-anchor: end" x="47.95375" y="21.549375" transform="rotate(-0 47.95375 21.549375)">0</text>
     </g>
    </g>
    <g id="ytick_2">
     <g id="line2d_6">
      <g>
       <use xlink:href="#mdf13412aa4" x="54.95375" y="88.122873" style="stroke: #000000; stroke-width: 0.8"/>
      </g>
     </g>
     <g id="text_7">
      <text style="font: 12px 'Arial', sans-serif; text-anchor: end" x="47.95375" y="92.417561" transform="rotate(-0 47.95375 92.417561)">50</text>
     </g>
    </g>
    <g id="ytick_3">
     <g id="line2d_7">
      <g>
       <use xlink:href="#mdf13412aa4" x="54.95375" y="158.991059" style="stroke: #000000; stroke-width: 0.8"/>
      </g>
     </g>
     <g id="text_8">
      <text style="font: 12px 'Arial', sans-serif; text-anchor: end" x="47.95375" y="163.285747" transform="rotate(-0 47.95375 163.285747)">100</text>
     </g>
    </g>
    <g id="ytick_4">
     <g id="line2d_8">
      <g>
       <use xlink:href="#mdf13412aa4" x="54.95375" y="229.859245" style="stroke: #000000; stroke-width: 0.8"/>
      </g>
     </g>
     <g id="text_9">
      <text style="font: 12px 'Arial', sans-serif; text-anchor: end" x="47.95375" y="234.153932" transform="rotate(-0 47.95375 234.153932)">150</text>
     </g>
    </g>
    <g id="ytick_5">
     <g id="line2d_9">
      <g>
       <use xlink:href="#mdf13412aa4" x="54.95375" y="300.727431" style="stroke: #000000; stroke-width: 0.8"/>
      </g>
     </g>
     <g id="text_10">
      <text style="font: 12px 'Arial', sans-serif; text-anchor: end" x="47.95375" y="305.022118" transform="rotate(-0 47.95375 305.022118)">200</text>
     </g>
    </g>
    <g id="ytick_6">
     <g id="line2d_10">
      <g>
       <use xlink:href="#mdf13412aa4" x="54.95375" y="371.595616" style="stroke: #000000; stroke-width: 0.8"/>
      </g>
     </g>
     <g id="text_11">
      <text style="font: 12px 'Arial', sans-serif; text-anchor: end" x="47.95375" y="375.890304" transform="rotate(-0 47.95375 375.890304)">250</text>
     </g>
    </g>
    <g id="ytick_7">
     <g id="line2d_11">
      <g>
       <use xlink:href="#mdf13412aa4" x="54.95375" y="442.463802" style="stroke: #000000; stroke-width: 0.8"/>
      </g>
     </g>
     <g id="text_12">
      <text style="font: 12px 'Arial', sans-serif; text-anchor: end" x="47.95375" y="446.75849" transform="rotate(-0 47.95375 446.75849)">300</text>
     </g>
    </g>
    <g id="ytick_8">
     <g id="line2d_12">
      <g>
       <use xlink:href="#mdf13412aa4" x="54.95375" y="513.331988" style="stroke: #000000; stroke-width: 0.8"/>
      </g>
     </g>
     <g id="text_13">
      <text style="font: 12px 'Arial', sans-serif; text-anchor: end" x="47.95375" y="517.626675" transform="rotate(-0 47.95375 517.626675)">350</text>
     </g>
    </g>
    <g id="text_14">
     <text style="font: 12px 'Arial', sans-serif; text-anchor: middle" x="21.549375" y="272.380156" transform="rotate(-90 21.549375 272.380156)">Depth [m]</text>
    </g>
   </g>
   <g id="line2d_13">
    <path d="M 63.468529 18.672051 
L 62.703263 18.955524 
L 61.816393 19.09726 
L 61.684943 19.238997 
L 61.807024 19.380733 
L 62.507389 19.522469 
L 62.264844 19.664206 
L 63.864692 20.231151 
L 64.209765 20.939833 
L 64.724764 21.506779 
L 65.593706 24.624979 
L 66.0119 27.034497 
L 66.477918 31.286588 
L 67.393067 41.349871 
L 68.804043 51.413153 
L 69.388365 53.964408 
L 70.552259 57.933026 
L 73.039064 65.58679 
L 74.844463 73.098818 
L 76.023153 79.902164 
L 77.386 86.988982 
L 79.831302 96.485319 
L 81.249137 100.73741 
L 82.80947 104.847765 
L 83.789907 106.973811 
L 85.241422 109.808538 
L 86.654947 112.359793 
L 91.599394 120.580502 
L 94.054047 124.549121 
L 97.799536 130.785521 
L 100.373421 135.321085 
L 106.19409 146.234786 
L 107.989923 150.203404 
L 109.99519 155.305913 
L 112.652542 163.101414 
L 114.023743 167.92045 
L 116.641392 178.267206 
L 118.971099 187.905279 
L 120.504516 195.27557 
L 121.444283 200.945025 
L 122.581863 210.157889 
L 123.267241 217.811653 
L 123.993257 227.733199 
L 124.62265 238.6469 
L 125.741266 260.474301 
L 126.097352 263.875974 
L 127.1742 271.388002 
L 127.909192 275.35662 
L 129.286098 280.884339 
L 130.832978 285.561639 
L 132.73971 291.231094 
L 133.992725 296.758812 
L 134.801809 301.436112 
L 135.278416 305.262994 
L 135.683341 310.50724 
L 135.903371 316.885377 
L 136.106367 321.704414 
L 136.413579 328.932968 
L 136.956261 341.264033 
L 137.540242 350.618633 
L 138.059501 355.43767 
L 138.499746 357.705452 
L 139.147582 359.973234 
L 140.047963 361.957543 
L 143.1127 368.193943 
L 146.051903 375.139026 
L 146.974978 376.698126 
L 147.904664 377.832017 
L 149.069418 378.824171 
L 151.022974 380.099799 
L 152.615853 380.950217 
L 155.577348 382.225844 
L 159.715272 383.784944 
L 167.117039 386.477935 
L 169.616102 387.611826 
L 171.849177 388.887454 
L 173.453398 390.021345 
L 175.075613 391.438708 
L 176.869275 393.423018 
L 177.907324 394.840381 
L 179.326849 397.2499 
L 180.679011 400.084627 
L 181.130252 401.501991 
L 182.549384 407.454918 
L 184.478471 416.951255 
L 185.913705 424.605019 
L 186.447686 428.006692 
L 187.02844 436.369138 
L 187.669453 443.172484 
L 188.35447 447.991521 
L 189.464091 452.952294 
L 190.28072 455.361812 
L 192.350559 460.180849 
L 193.553858 463.015576 
L 194.981042 466.842458 
L 196.308807 470.66934 
L 196.308807 470.66934 
" clip-path="url(#p9b261f9617)" style="fill: none; stroke: #000000; stroke-width: 2; stroke-linecap: square"/>
   </g>
   <g id="patch_3">
    <path d="M 54.95375 527.505625 
L 54.95375 17.254687 
" style="fill: none; stroke: #000000; stroke-width: 0.8; stroke-linejoin: miter; stroke-linecap: square"/>
   </g>
   <g id="patch_4">
    <path d="M 203.04 527.505625 
L 203.04 17.254687 
" style="fill: none; stroke: #000000; stroke-width: 0.8; stroke-linejoin: miter; stroke-linecap: square"/>
   </g>
   <g id="patch_5">
    <path d="M 54.95375 527.505625 
L 203.04 527.505625 
" style="fill: none; stroke: #000000; stroke-width: 0.8; stroke-linejoin: miter; stroke-linecap: square"/>
   </g>
   <g id="patch_6">
    <path d="M 54.95375 17.254687 
L 203.04 17.254687 
" style="fill: none; stroke: #000000; stroke-width: 0.8; stroke-linejoin: miter; stroke-linecap: square"/>
   </g>
  </g>
 </g>
 <defs>
  <clipPath id="p9b261f9617">
   <rect x="54.95375" y="17.254687" width="148.08625" height="510.250938"/>
  </clipPath>
 </defs>
</svg>
