<?xml version="1.0" encoding="utf-8" standalone="no"?>
<!DOCTYPE svg PUBLIC "-//W3C//DTD SVG 1.1//EN"
  "http://www.w3.org/Graphics/SVG/1.1/DTD/svg11.dtd">
<svg xmlns:xlink="http://www.w3.org/1999/xlink" width="432pt" height="288pt" viewBox="0 0 432 288" xmlns="http://www.w3.org/2000/svg" version="1.1">
 <metadata>
  <rdf:RDF xmlns:dc="http://purl.org/dc/elements/1.1/" xmlns:cc="http://creativecommons.org/ns#" xmlns:rdf="http://www.w3.org/1999/02/22-rdf-syntax-ns#">
   <cc:Work>
    <dc:type rdf:resource="http://purl.org/dc/dcmitype/StillImage"/>
    <dc:date>2023-09-18T14:02:45.607960</dc:date>
    <dc:format>image/svg+xml</dc:format>
    <dc:creator>
     <cc:Agent>
      <dc:title>Matplotlib v3.7.1, https://matplotlib.org/</dc:title>
     </cc:Agent>
    </dc:creator>
   </cc:Work>
  </rdf:RDF>
 </metadata>
 <defs>
  <style type="text/css">*{stroke-linejoin: round; stroke-linecap: butt}</style>
 </defs>
 <g id="figure_1">
  <g id="patch_1">
   <path d="M 0 288 
L 432 288 
L 432 0 
L 0 0 
z
" style="fill: #ffffff"/>
  </g>
  <g id="axes_1">
   <g id="patch_2">
    <path d="M 58.43375 241.804375 
L 129.15625 241.804375 
L 129.15625 12.96 
L 58.43375 12.96 
z
" style="fill: #ffffff"/>
   </g>
   <g id="matplotlib.axis_1">
    <g id="xtick_1">
     <g id="line2d_1">
      <defs>
       <path id="m861750390f" d="M 0 0 
L 0 3.5 
" style="stroke: #000000; stroke-width: 0.8"/>
      </defs>
      <g>
       <use xlink:href="#m861750390f" x="71.734983" y="241.804375" style="stroke: #000000; stroke-width: 0.8"/>
      </g>
     </g>
     <g id="text_1">
      <text style="font: 12px 'Arial', sans-serif; text-anchor: middle" x="71.734983" y="257.39375" transform="rotate(-0 71.734983 257.39375)">−5</text>
     </g>
    </g>
    <g id="xtick_2">
     <g id="line2d_2">
      <g>
       <use xlink:href="#m861750390f" x="122.564037" y="241.804375" style="stroke: #000000; stroke-width: 0.8"/>
      </g>
     </g>
     <g id="text_2">
      <text style="font: 12px 'Arial', sans-serif; text-anchor: middle" x="122.564037" y="257.39375" transform="rotate(-0 122.564037 257.39375)">0</text>
     </g>
    </g>
    <g id="text_3">
     <text style="font: 12px 'Arial', sans-serif; text-anchor: middle" x="93.795" y="272.514375" transform="rotate(-0 93.795 272.514375)">Isotherms disp. [m/yr]</text>
    </g>
   </g>
   <g id="matplotlib.axis_2">
    <g id="ytick_1">
     <g id="line2d_3">
      <defs>
       <path id="mf5cb7290e3" d="M 0 0 
L -3.5 0 
" style="stroke: #000000; stroke-width: 0.8"/>
      </defs>
      <g>
       <use xlink:href="#mf5cb7290e3" x="58.43375" y="226.65619" style="stroke: #000000; stroke-width: 0.8"/>
      </g>
     </g>
     <g id="text_4">
      <text style="font: 12px 'Arial', sans-serif; text-anchor: end" x="51.43375" y="230.950878" transform="rotate(-0 51.43375 230.950878)">23.0</text>
     </g>
    </g>
    <g id="ytick_2">
     <g id="line2d_4">
      <g>
       <use xlink:href="#mf5cb7290e3" x="58.43375" y="187.104795" style="stroke: #000000; stroke-width: 0.8"/>
      </g>
     </g>
     <g id="text_5">
      <text style="font: 12px 'Arial', sans-serif; text-anchor: end" x="51.43375" y="191.399482" transform="rotate(-0 51.43375 191.399482)">23.5</text>
     </g>
    </g>
    <g id="ytick_3">
     <g id="line2d_5">
      <g>
       <use xlink:href="#mf5cb7290e3" x="58.43375" y="147.553399" style="stroke: #000000; stroke-width: 0.8"/>
      </g>
     </g>
     <g id="text_6">
      <text style="font: 12px 'Arial', sans-serif; text-anchor: end" x="51.43375" y="151.848087" transform="rotate(-0 51.43375 151.848087)">24.0</text>
     </g>
    </g>
    <g id="ytick_4">
     <g id="line2d_6">
      <g>
       <use xlink:href="#mf5cb7290e3" x="58.43375" y="108.002004" style="stroke: #000000; stroke-width: 0.8"/>
      </g>
     </g>
     <g id="text_7">
      <text style="font: 12px 'Arial', sans-serif; text-anchor: end" x="51.43375" y="112.296691" transform="rotate(-0 51.43375 112.296691)">24.5</text>
     </g>
    </g>
    <g id="ytick_5">
     <g id="line2d_7">
      <g>
       <use xlink:href="#mf5cb7290e3" x="58.43375" y="68.450608" style="stroke: #000000; stroke-width: 0.8"/>
      </g>
     </g>
     <g id="text_8">
      <text style="font: 12px 'Arial', sans-serif; text-anchor: end" x="51.43375" y="72.745296" transform="rotate(-0 51.43375 72.745296)">25.0</text>
     </g>
    </g>
    <g id="ytick_6">
     <g id="line2d_8">
      <g>
       <use xlink:href="#mf5cb7290e3" x="58.43375" y="28.899212" style="stroke: #000000; stroke-width: 0.8"/>
      </g>
     </g>
     <g id="text_9">
      <text style="font: 12px 'Arial', sans-serif; text-anchor: end" x="51.43375" y="33.1939" transform="rotate(-0 51.43375 33.1939)">25.5</text>
     </g>
    </g>
    <g id="text_10">
     <text style="font: 12px 'Arial', sans-serif; text-anchor: middle" x="21.695625" y="127.382188" transform="rotate(-90 21.695625 127.382188)">T [°C]</text>
    </g>
   </g>
   <g id="line2d_9">
    <path d="M 121.074009 231.402358 
L 121.012951 220.327967 
L 119.216328 219.536939 
L 118.650411 218.745911 
L 114.958627 217.954883 
L 111.924662 217.163856 
L 108.298889 216.372828 
L 101.879924 215.5818 
L 98.596044 214.790772 
L 94.891468 213.208716 
L 94.109813 212.417688 
L 96.166302 211.62666 
L 100.856247 210.835632 
L 103.326558 210.044604 
L 102.220109 209.253576 
L 103.401784 208.462549 
L 104.20285 207.671521 
L 105.404155 206.880493 
L 107.088102 206.089465 
L 106.785928 205.298437 
L 104.977164 204.507409 
L 103.741706 203.716381 
L 101.208434 202.925353 
L 94.616535 202.134325 
L 92.515128 201.343297 
L 92.523069 200.552269 
L 92.788219 199.761241 
L 93.450024 198.970214 
L 96.804385 197.388158 
L 96.343392 196.59713 
L 93.983481 195.806102 
L 95.318849 195.015074 
L 107.046647 191.850962 
L 110.685063 190.268907 
L 113.121975 188.686851 
L 115.543273 186.313767 
L 116.578685 184.731711 
L 117.257187 183.149655 
L 118.14772 179.985544 
L 118.538645 175.239376 
L 119.326753 172.075265 
L 119.71343 170.493209 
L 120.320233 167.329097 
L 120.322528 164.164985 
L 120.258224 163.373958 
L 120.057931 162.58293 
L 106.887936 161.791902 
L 84.874381 161.000874 
L 82.371411 160.209846 
L 78.977992 159.418818 
L 79.956762 158.62779 
L 90.031075 157.836762 
L 91.508654 157.045734 
L 108.834268 156.254706 
L 61.648409 155.463678 
L 62.322657 154.67265 
L 63.403171 153.881623 
L 89.007683 151.508539 
L 95.128809 150.717511 
L 99.464861 149.926483 
L 102.836973 149.135455 
L 105.629312 148.344427 
L 107.68753 147.553399 
L 110.864473 145.971343 
L 111.867332 145.180316 
L 113.634852 143.59826 
L 113.892128 142.807232 
L 114.885919 142.016204 
L 115.525041 141.225176 
L 116.437475 139.64312 
L 117.475773 136.479008 
L 118.135762 132.523869 
L 118.355835 129.359757 
L 118.791583 123.031534 
L 119.018514 109.584059 
L 119.336856 102.464808 
L 119.465605 92.181445 
L 119.614796 89.808362 
L 119.531841 87.435278 
L 119.201754 85.062194 
L 118.765788 83.480138 
L 118.008055 81.898083 
L 117.614735 81.107055 
L 116.594593 79.524999 
L 115.769697 78.733971 
L 112.962038 77.151915 
L 109.477835 76.360887 
L 104.33586 75.569859 
L 95.826751 73.196776 
L 89.233506 72.405748 
L 85.401412 71.61472 
L 84.11577 70.823692 
L 83.653461 70.032664 
L 85.279732 69.241636 
L 85.277322 68.450608 
L 85.640387 67.65958 
L 84.733239 66.868552 
L 85.932653 65.286496 
L 91.804046 62.913413 
L 101.647563 60.540329 
L 103.494154 59.749301 
L 105.006308 58.958273 
L 105.544848 58.167245 
L 108.053949 56.585189 
L 109.102821 55.794161 
L 109.724097 55.003134 
L 110.905545 54.212106 
L 111.593459 52.63005 
L 112.493225 49.465938 
L 112.647565 48.67491 
L 112.604857 47.092854 
L 112.682332 45.510799 
L 112.74396 43.928743 
L 113.180673 41.555659 
L 113.350114 40.764631 
L 113.213436 38.391547 
L 112.177633 36.018464 
L 112.975528 35.227436 
L 116.030575 34.436408 
L 116.295231 33.64538 
L 116.149638 32.854352 
L 115.17971 32.063324 
L 115.125823 31.272296 
L 115.355264 30.481268 
L 117.311786 29.69024 
L 120.913327 28.899212 
L 116.629532 28.108185 
L 116.629532 28.108185 
" clip-path="url(#p542ffcd0ef)" style="fill: none; stroke: #0000cc; stroke-width: 1.5; stroke-linecap: square"/>
   </g>
   <g id="line2d_10">
    <path d="M 94.117818 231.402358 
L 94.117818 213.208716 
L 93.752547 212.417688 
L 91.200717 211.62666 
L 87.275758 210.835632 
L 82.226891 210.044604 
L 75.831319 209.253576 
L 70.505602 208.462549 
L 66.46422 207.671521 
L 66.921083 206.880493 
L 70.800516 206.089465 
L 75.441842 205.298437 
L 78.984637 204.507409 
L 83.266119 202.925353 
L 84.759386 202.134325 
L 86.012542 201.343297 
L 86.67218 200.552269 
L 86.494296 199.761241 
L 85.540526 198.970214 
L 85.206922 198.179186 
L 85.37204 197.388158 
L 85.867654 196.59713 
L 86.768114 195.806102 
L 86.654009 195.015074 
L 84.475394 194.224046 
L 85.267028 193.433018 
L 87.626028 192.64199 
L 94.55746 191.059934 
L 102.184791 188.686851 
L 105.74949 187.104795 
L 107.215572 186.313767 
L 108.390244 185.522739 
L 109.335235 184.731711 
L 110.099801 183.940683 
L 111.250977 182.358627 
L 112.604842 179.985544 
L 113.320438 178.403488 
L 114.445775 175.239376 
L 115.311147 172.866292 
L 116.157064 169.702181 
L 116.769326 167.329097 
L 117.552445 164.956013 
L 118.681731 161.791902 
L 119.499304 158.62779 
L 119.334129 157.045734 
L 119.300347 156.254706 
L 119.050075 155.463678 
L 118.315885 154.67265 
L 116.45296 153.881623 
L 107.448038 152.299567 
L 106.043365 151.508539 
L 106.056226 150.717511 
L 106.292469 149.926483 
L 106.260829 149.135455 
L 106.498591 147.553399 
L 106.384398 145.971343 
L 106.766681 144.389288 
L 106.710404 143.59826 
L 107.044612 142.807232 
L 106.331747 139.64312 
L 105.700569 138.061064 
L 104.922614 134.896953 
L 104.705292 133.314897 
L 104.77282 131.732841 
L 105.233596 130.150785 
L 105.623982 129.359757 
L 106.702178 127.777701 
L 107.325942 126.986674 
L 108.150676 126.195646 
L 110.22534 124.61359 
L 112.781482 123.031534 
L 115.399108 121.449478 
L 117.583686 119.867422 
L 119.269785 118.285367 
L 120.609061 116.703311 
L 121.74176 115.121255 
L 122.621518 113.539199 
L 123.301195 111.957143 
L 124.040133 109.584059 
L 124.558279 107.210976 
L 124.886161 104.837892 
L 125.158667 99.300697 
L 125.604726 80.316027 
L 125.528183 78.733971 
L 125.157869 76.360887 
L 124.604983 74.778831 
L 123.229471 71.61472 
L 121.979148 70.032664 
L 120.134055 68.450608 
L 114.930507 64.495468 
L 114.099406 63.704441 
L 113.611973 62.913413 
L 112.474561 62.122385 
L 109.796886 60.540329 
L 109.122138 59.749301 
L 111.232862 58.167245 
L 112.537294 57.376217 
L 115.466928 55.003134 
L 116.094603 54.212106 
L 117.037005 52.63005 
L 117.605827 51.839022 
L 118.798117 49.465938 
L 119.721363 44.719771 
L 120.361015 43.137715 
L 120.539445 42.346687 
L 120.610561 38.391547 
L 120.498613 36.809492 
L 119.590259 34.436408 
L 119.4936 33.64538 
L 119.679574 31.272296 
L 120.70865 28.108185 
L 120.93491 27.317157 
L 121.083383 25.735101 
L 121.342171 24.944073 
L 125.941591 24.153045 
L 124.623011 23.362017 
L 124.623011 23.362017 
" clip-path="url(#p542ffcd0ef)" style="fill: none; stroke: #00cc00; stroke-width: 1.5; stroke-linecap: square"/>
   </g>
   <g id="line2d_11">
    <path d="M 122.564037 241.804375 
L 122.564037 12.96 
" clip-path="url(#p542ffcd0ef)" style="fill: none; stroke: #000000; stroke-width: 1.5; stroke-linecap: square"/>
   </g>
   <g id="patch_3">
    <path d="M 58.43375 241.804375 
L 58.43375 12.96 
" style="fill: none; stroke: #000000; stroke-width: 0.8; stroke-linejoin: miter; stroke-linecap: square"/>
   </g>
   <g id="patch_4">
    <path d="M 129.15625 241.804375 
L 129.15625 12.96 
" style="fill: none; stroke: #000000; stroke-width: 0.8; stroke-linejoin: miter; stroke-linecap: square"/>
   </g>
   <g id="patch_5">
    <path d="M 58.43375 241.804375 
L 129.15625 241.804375 
" style="fill: none; stroke: #000000; stroke-width: 0.8; stroke-linejoin: miter; stroke-linecap: square"/>
   </g>
   <g id="patch_6">
    <path d="M 58.43375 12.96 
L 129.15625 12.96 
" style="fill: none; stroke: #000000; stroke-width: 0.8; stroke-linejoin: miter; stroke-linecap: square"/>
   </g>
  </g>
  <g id="axes_2">
   <g id="patch_7">
    <path d="M 203.375625 241.804375 
L 274.098125 241.804375 
L 274.098125 12.96 
L 203.375625 12.96 
z
" style="fill: #ffffff"/>
   </g>
   <g id="matplotlib.axis_3">
    <g id="xtick_3">
     <g id="line2d_12">
      <g>
       <use xlink:href="#m861750390f" x="209.982727" y="241.804375" style="stroke: #000000; stroke-width: 0.8"/>
      </g>
     </g>
     <g id="text_11">
      <text style="font: 12px 'Arial', sans-serif; text-anchor: middle" x="209.982727" y="257.39375" transform="rotate(-0 209.982727 257.39375)">−5</text>
     </g>
    </g>
    <g id="xtick_4">
     <g id="line2d_13">
      <g>
       <use xlink:href="#m861750390f" x="238.732731" y="241.804375" style="stroke: #000000; stroke-width: 0.8"/>
      </g>
     </g>
     <g id="text_12">
      <text style="font: 12px 'Arial', sans-serif; text-anchor: middle" x="238.732731" y="257.39375" transform="rotate(-0 238.732731 257.39375)">0</text>
     </g>
    </g>
    <g id="xtick_5">
     <g id="line2d_14">
      <g>
       <use xlink:href="#m861750390f" x="267.482735" y="241.804375" style="stroke: #000000; stroke-width: 0.8"/>
      </g>
     </g>
     <g id="text_13">
      <text style="font: 12px 'Arial', sans-serif; text-anchor: middle" x="267.482735" y="257.39375" transform="rotate(-0 267.482735 257.39375)">5</text>
     </g>
    </g>
    <g id="text_14">
     <text style="font: 12px 'Arial', sans-serif; text-anchor: middle" x="238.736875" y="272.514375" transform="rotate(-0 238.736875 272.514375)">Isohalines disp. [m/yr]</text>
    </g>
   </g>
   <g id="matplotlib.axis_4">
    <g id="ytick_7">
     <g id="line2d_15">
      <g>
       <use xlink:href="#mf5cb7290e3" x="203.375625" y="229.200873" style="stroke: #000000; stroke-width: 0.8"/>
      </g>
     </g>
     <g id="text_15">
      <text style="font: 12px 'Arial', sans-serif; text-anchor: end" x="196.375625" y="233.49556" transform="rotate(-0 196.375625 233.49556)">1.0</text>
     </g>
    </g>
    <g id="ytick_8">
     <g id="line2d_16">
      <g>
       <use xlink:href="#mf5cb7290e3" x="203.375625" y="201.682309" style="stroke: #000000; stroke-width: 0.8"/>
      </g>
     </g>
     <g id="text_16">
      <text style="font: 12px 'Arial', sans-serif; text-anchor: end" x="196.375625" y="205.976997" transform="rotate(-0 196.375625 205.976997)">1.5</text>
     </g>
    </g>
    <g id="ytick_9">
     <g id="line2d_17">
      <g>
       <use xlink:href="#mf5cb7290e3" x="203.375625" y="174.163746" style="stroke: #000000; stroke-width: 0.8"/>
      </g>
     </g>
     <g id="text_17">
      <text style="font: 12px 'Arial', sans-serif; text-anchor: end" x="196.375625" y="178.458433" transform="rotate(-0 196.375625 178.458433)">2.0</text>
     </g>
    </g>
    <g id="ytick_10">
     <g id="line2d_18">
      <g>
       <use xlink:href="#mf5cb7290e3" x="203.375625" y="146.645182" style="stroke: #000000; stroke-width: 0.8"/>
      </g>
     </g>
     <g id="text_18">
      <text style="font: 12px 'Arial', sans-serif; text-anchor: end" x="196.375625" y="150.93987" transform="rotate(-0 196.375625 150.93987)">2.5</text>
     </g>
    </g>
    <g id="ytick_11">
     <g id="line2d_19">
      <g>
       <use xlink:href="#mf5cb7290e3" x="203.375625" y="119.126618" style="stroke: #000000; stroke-width: 0.8"/>
      </g>
     </g>
     <g id="text_19">
      <text style="font: 12px 'Arial', sans-serif; text-anchor: end" x="196.375625" y="123.421306" transform="rotate(-0 196.375625 123.421306)">3.0</text>
     </g>
    </g>
    <g id="ytick_12">
     <g id="line2d_20">
      <g>
       <use xlink:href="#mf5cb7290e3" x="203.375625" y="91.608055" style="stroke: #000000; stroke-width: 0.8"/>
      </g>
     </g>
     <g id="text_20">
      <text style="font: 12px 'Arial', sans-serif; text-anchor: end" x="196.375625" y="95.902742" transform="rotate(-0 196.375625 95.902742)">3.5</text>
     </g>
    </g>
    <g id="ytick_13">
     <g id="line2d_21">
      <g>
       <use xlink:href="#mf5cb7290e3" x="203.375625" y="64.089491" style="stroke: #000000; stroke-width: 0.8"/>
      </g>
     </g>
     <g id="text_21">
      <text style="font: 12px 'Arial', sans-serif; text-anchor: end" x="196.375625" y="68.384179" transform="rotate(-0 196.375625 68.384179)">4.0</text>
     </g>
    </g>
    <g id="ytick_14">
     <g id="line2d_22">
      <g>
       <use xlink:href="#mf5cb7290e3" x="203.375625" y="36.570928" style="stroke: #000000; stroke-width: 0.8"/>
      </g>
     </g>
     <g id="text_22">
      <text style="font: 12px 'Arial', sans-serif; text-anchor: end" x="196.375625" y="40.865615" transform="rotate(-0 196.375625 40.865615)">4.5</text>
     </g>
    </g>
    <g id="text_23">
     <!-- S [g kg$^{-1}$] -->
     <g transform="translate(173.055625 154.142188) rotate(-90)">
      <text>
       <tspan style="font: 12px 'Arial'" x="0 8.003906 11.337891 14.671875 21.345703 24.679688 30.679688 50.179102" y="-0.28125">S [g kg]</tspan>
       <tspan style="font: 8.4px 'DejaVu Sans'" x="37.468359 44.506641" y="-4.875">−1</tspan>
      </text>
     </g>
    </g>
   </g>
   <g id="line2d_23">
    <path d="M 240.169058 231.402358 
L 240.169058 228.650502 
L 242.531211 228.10013 
L 261.913951 226.999388 
L 268.792197 226.449017 
L 270.883466 225.898645 
L 245.55171 225.348274 
L 242.477962 224.797903 
L 241.78222 224.247531 
L 241.764071 223.69716 
L 241.252925 223.146789 
L 235.755485 222.046046 
L 235.094694 221.495675 
L 234.031998 219.844561 
L 233.774791 218.743819 
L 233.799619 217.092705 
L 233.465302 216.542334 
L 233.397546 215.991962 
L 233.496866 215.441591 
L 234.272369 213.790477 
L 235.144847 211.038621 
L 235.133902 209.387507 
L 235.130705 208.286765 
L 235.319805 207.186022 
L 235.928306 204.984537 
L 236.359032 202.783052 
L 237.30734 198.930453 
L 237.55329 197.82971 
L 237.541913 197.279339 
L 237.254452 196.178597 
L 237.373243 192.876369 
L 237.422385 189.02377 
L 238.07124 186.271914 
L 238.127971 184.070429 
L 238.019038 182.419315 
L 238.454583 180.21783 
L 238.325208 178.566716 
L 238.03202 176.365231 
L 237.860863 173.613374 
L 237.799272 173.063003 
L 237.911263 171.411889 
L 237.531676 170.311147 
L 237.545453 169.760775 
L 237.87591 168.660033 
L 238.295086 167.55929 
L 238.649461 167.008919 
L 239.220367 165.357805 
L 239.289364 163.706691 
L 239.482349 162.605949 
L 239.51015 162.055578 
L 239.299079 161.505206 
L 239.384585 158.75335 
L 238.880381 157.652607 
L 238.376447 157.102236 
L 238.04499 156.551865 
L 238.099248 156.001494 
L 237.891507 155.451122 
L 237.215439 154.900751 
L 234.375222 153.800009 
L 231.181269 153.249637 
L 230.51463 152.699266 
L 230.615665 152.148895 
L 230.355202 151.598523 
L 232.120919 151.048152 
L 233.035228 149.94741 
L 233.674737 149.397038 
L 235.203446 148.296296 
L 236.032803 147.195553 
L 236.752895 146.094811 
L 237.163059 144.994068 
L 237.375741 143.342954 
L 237.443988 142.242212 
L 237.408605 138.939984 
L 237.519692 137.28887 
L 237.592649 136.188128 
L 237.84753 135.087385 
L 238.314934 133.436271 
L 238.654445 131.234786 
L 238.026255 128.48293 
L 237.122211 127.932559 
L 226.840506 127.382188 
L 206.590284 126.831816 
L 207.233094 126.281445 
L 217.385396 125.731074 
L 225.050673 125.180702 
L 228.862163 124.630331 
L 231.363133 124.07996 
L 232.709185 123.529589 
L 233.627998 122.979217 
L 234.599846 121.878475 
L 234.748911 121.328104 
L 235.353245 120.777732 
L 235.22543 120.227361 
L 235.842367 119.67699 
L 236.089733 118.576247 
L 236.059968 118.025876 
L 236.464228 117.475505 
L 236.944328 115.27402 
L 237.176591 113.622906 
L 237.296508 110.871049 
L 237.506757 103.716223 
L 237.624678 99.863624 
L 237.723409 87.205085 
L 237.794641 79.499887 
L 238.336484 55.283551 
L 238.232324 53.082066 
L 237.991553 50.880581 
L 237.77743 49.779838 
L 237.086517 48.679096 
L 235.668083 48.128724 
L 233.620154 47.578353 
L 230.325726 46.47761 
L 226.351506 45.927239 
L 225.29738 45.376868 
L 225.373075 44.826497 
L 224.210396 44.276125 
L 231.399097 42.625012 
L 233.61405 41.524269 
L 235.200059 40.423526 
L 235.753222 39.873155 
L 236.105454 39.322784 
L 236.465287 38.222041 
L 236.449288 37.67167 
L 236.675033 37.121299 
L 236.367194 36.570928 
L 236.915317 34.919814 
L 237.125492 34.369442 
L 237.183208 33.819071 
L 237.437262 33.2687 
L 237.382475 32.718329 
L 237.471389 32.167957 
L 237.297583 29.966472 
L 237.120465 29.416101 
L 237.085444 28.315358 
L 237.089739 27.764987 
L 236.903015 27.214616 
L 235.737973 25.563502 
L 236.402822 24.46276 
L 232.212179 23.912388 
L 242.344348 23.362017 
L 242.344348 23.362017 
" clip-path="url(#p80b13c99c8)" style="fill: none; stroke: #0000cc; stroke-width: 1.5; stroke-linecap: square"/>
   </g>
   <g id="line2d_24">
    <path d="M 213.022867 231.402358 
L 213.292417 230.851987 
L 214.768714 230.301615 
L 222.334015 229.751244 
L 233.976238 229.200873 
L 237.112105 228.650502 
L 233.928389 228.10013 
L 229.878823 227.549759 
L 223.38843 226.999388 
L 218.450069 225.898645 
L 218.115474 225.348274 
L 218.292635 224.797903 
L 218.462959 223.69716 
L 218.738997 222.596418 
L 218.858189 220.394933 
L 218.87789 218.193447 
L 219.072816 215.441591 
L 219.140016 214.340849 
L 219.376188 212.139363 
L 219.386682 210.48825 
L 219.170828 202.783052 
L 219.723415 195.628225 
L 220.252909 192.325998 
L 221.811152 184.070429 
L 222.846689 179.667458 
L 224.623813 171.962261 
L 225.254587 170.311147 
L 226.553537 166.458548 
L 227.03895 163.706691 
L 227.354643 162.605949 
L 228.154417 160.404464 
L 228.619837 158.75335 
L 229.04953 156.551865 
L 229.533279 155.451122 
L 230.08405 154.35038 
L 230.239067 153.800009 
L 230.217788 153.249637 
L 230.427626 152.699266 
L 230.336386 152.148895 
L 230.968615 151.598523 
L 231.418787 151.048152 
L 231.200768 150.497781 
L 232.155668 149.397038 
L 233.206226 147.745925 
L 234.229648 144.994068 
L 236.216747 135.637757 
L 237.285932 132.335529 
L 239.183171 127.932559 
L 239.723505 127.382188 
L 240.6313 126.831816 
L 239.633342 126.281445 
L 236.163977 125.731074 
L 230.599213 125.180702 
L 230.030481 124.630331 
L 229.894427 124.07996 
L 230.170873 122.979217 
L 230.204848 121.878475 
L 230.728188 121.328104 
L 231.043414 120.777732 
L 230.875608 120.227361 
L 230.581184 119.67699 
L 230.698694 118.576247 
L 230.412101 117.475505 
L 229.964769 114.723648 
L 229.653073 111.971792 
L 229.949242 110.320678 
L 230.453493 109.219936 
L 231.229581 108.119193 
L 232.288589 107.01845 
L 237.17234 102.61548 
L 238.361064 100.964366 
L 239.18163 99.313253 
L 239.762174 97.662139 
L 240.272953 95.460654 
L 240.739186 92.158426 
L 241.066812 87.755456 
L 241.301874 81.701372 
L 241.369263 72.895432 
L 241.559023 65.190234 
L 241.987058 56.934665 
L 242.325546 54.182808 
L 242.795729 51.981323 
L 243.370977 50.330209 
L 244.685056 47.578353 
L 244.415571 46.47761 
L 243.688334 45.376868 
L 242.848483 44.826497 
L 241.455189 44.276125 
L 238.09973 43.175383 
L 237.741745 42.625012 
L 237.695434 42.07464 
L 238.219109 39.873155 
L 237.995762 39.322784 
L 237.785772 38.222041 
L 238.04621 37.121299 
L 239.049161 33.2687 
L 239.231862 31.617586 
L 239.27202 29.966472 
L 239.137742 28.315358 
L 239.120608 26.664245 
L 239.013182 26.113873 
L 239.077213 25.563502 
L 238.786045 24.46276 
L 238.688973 23.362017 
L 238.688973 23.362017 
" clip-path="url(#p80b13c99c8)" style="fill: none; stroke: #00cc00; stroke-width: 1.5; stroke-linecap: square"/>
   </g>
   <g id="line2d_25">
    <path d="M 238.732731 241.804375 
L 238.732731 12.96 
" clip-path="url(#p80b13c99c8)" style="fill: none; stroke: #000000; stroke-width: 1.5; stroke-linecap: square"/>
   </g>
   <g id="patch_8">
    <path d="M 203.375625 241.804375 
L 203.375625 12.96 
" style="fill: none; stroke: #000000; stroke-width: 0.8; stroke-linejoin: miter; stroke-linecap: square"/>
   </g>
   <g id="patch_9">
    <path d="M 274.098125 241.804375 
L 274.098125 12.96 
" style="fill: none; stroke: #000000; stroke-width: 0.8; stroke-linejoin: miter; stroke-linecap: square"/>
   </g>
   <g id="patch_10">
    <path d="M 203.375625 241.804375 
L 274.098125 241.804375 
" style="fill: none; stroke: #000000; stroke-width: 0.8; stroke-linejoin: miter; stroke-linecap: square"/>
   </g>
   <g id="patch_11">
    <path d="M 203.375625 12.96 
L 274.098125 12.96 
" style="fill: none; stroke: #000000; stroke-width: 0.8; stroke-linejoin: miter; stroke-linecap: square"/>
   </g>
  </g>
  <g id="axes_3">
   <g id="patch_12">
    <path d="M 348.3175 241.804375 
L 419.04 241.804375 
L 419.04 12.96 
L 348.3175 12.96 
z
" style="fill: #ffffff"/>
   </g>
   <g id="matplotlib.axis_5">
    <g id="xtick_6">
     <g id="line2d_26">
      <g>
       <use xlink:href="#m861750390f" x="352.768194" y="241.804375" style="stroke: #000000; stroke-width: 0.8"/>
      </g>
     </g>
     <g id="text_24">
      <text style="font: 12px 'Arial', sans-serif; text-anchor: middle" x="352.768194" y="257.39375" transform="rotate(-0 352.768194 257.39375)">−5</text>
     </g>
    </g>
    <g id="xtick_7">
     <g id="line2d_27">
      <g>
       <use xlink:href="#m861750390f" x="392.518309" y="241.804375" style="stroke: #000000; stroke-width: 0.8"/>
      </g>
     </g>
     <g id="text_25">
      <text style="font: 12px 'Arial', sans-serif; text-anchor: middle" x="392.518309" y="257.39375" transform="rotate(-0 392.518309 257.39375)">0</text>
     </g>
    </g>
    <g id="text_26">
     <text style="font: 12px 'Arial', sans-serif; text-anchor: middle" x="383.67875" y="272.514375" transform="rotate(-0 383.67875 272.514375)">Isopyclines disp. [m/yr]</text>
    </g>
   </g>
   <g id="matplotlib.axis_6">
    <g id="ytick_15">
     <g id="line2d_28">
      <g>
       <use xlink:href="#mf5cb7290e3" x="348.3175" y="221.791799" style="stroke: #000000; stroke-width: 0.8"/>
      </g>
     </g>
     <g id="text_27">
      <text style="font: 12px 'Arial', sans-serif; text-anchor: end" x="341.3175" y="226.086486" transform="rotate(-0 341.3175 226.086486)">997.5</text>
     </g>
    </g>
    <g id="ytick_16">
     <g id="line2d_29">
      <g>
       <use xlink:href="#mf5cb7290e3" x="348.3175" y="193.525448" style="stroke: #000000; stroke-width: 0.8"/>
      </g>
     </g>
     <g id="text_28">
      <text style="font: 12px 'Arial', sans-serif; text-anchor: end" x="341.3175" y="197.820136" transform="rotate(-0 341.3175 197.820136)">998.0</text>
     </g>
    </g>
    <g id="ytick_17">
     <g id="line2d_30">
      <g>
       <use xlink:href="#mf5cb7290e3" x="348.3175" y="165.259097" style="stroke: #000000; stroke-width: 0.8"/>
      </g>
     </g>
     <g id="text_29">
      <text style="font: 12px 'Arial', sans-serif; text-anchor: end" x="341.3175" y="169.553785" transform="rotate(-0 341.3175 169.553785)">998.5</text>
     </g>
    </g>
    <g id="ytick_18">
     <g id="line2d_31">
      <g>
       <use xlink:href="#mf5cb7290e3" x="348.3175" y="136.992747" style="stroke: #000000; stroke-width: 0.8"/>
      </g>
     </g>
     <g id="text_30">
      <text style="font: 12px 'Arial', sans-serif; text-anchor: end" x="341.3175" y="141.287434" transform="rotate(-0 341.3175 141.287434)">999.0</text>
     </g>
    </g>
    <g id="ytick_19">
     <g id="line2d_32">
      <g>
       <use xlink:href="#mf5cb7290e3" x="348.3175" y="108.726396" style="stroke: #000000; stroke-width: 0.8"/>
      </g>
     </g>
     <g id="text_31">
      <text style="font: 12px 'Arial', sans-serif; text-anchor: end" x="341.3175" y="113.021084" transform="rotate(-0 341.3175 113.021084)">999.5</text>
     </g>
    </g>
    <g id="ytick_20">
     <g id="line2d_33">
      <g>
       <use xlink:href="#mf5cb7290e3" x="348.3175" y="80.460045" style="stroke: #000000; stroke-width: 0.8"/>
      </g>
     </g>
     <g id="text_32">
      <text style="font: 12px 'Arial', sans-serif; text-anchor: end" x="341.3175" y="84.754733" transform="rotate(-0 341.3175 84.754733)">1000.0</text>
     </g>
    </g>
    <g id="ytick_21">
     <g id="line2d_34">
      <g>
       <use xlink:href="#mf5cb7290e3" x="348.3175" y="52.193695" style="stroke: #000000; stroke-width: 0.8"/>
      </g>
     </g>
     <g id="text_33">
      <text style="font: 12px 'Arial', sans-serif; text-anchor: end" x="341.3175" y="56.488382" transform="rotate(-0 341.3175 56.488382)">1000.5</text>
     </g>
    </g>
    <g id="ytick_22">
     <g id="line2d_35">
      <g>
       <use xlink:href="#mf5cb7290e3" x="348.3175" y="23.927344" style="stroke: #000000; stroke-width: 0.8"/>
      </g>
     </g>
     <g id="text_34">
      <text style="font: 12px 'Arial', sans-serif; text-anchor: end" x="341.3175" y="28.222032" transform="rotate(-0 341.3175 28.222032)">1001.0</text>
     </g>
    </g>
    <g id="text_35">
     <!-- $\rho$ [kg m$^{-3}$] -->
     <g transform="translate(297.978125 155.642188) rotate(-90)">
      <text>
       <tspan style="font: oblique 12px 'DejaVu Sans'" x="0" y="-0.171875">ρ</tspan>
       <tspan style="font: 12px 'Arial'" x="7.617188 10.951172 14.285156 20.285156 26.958984 30.292969 53.114648" y="-0.171875"> [kg m]</tspan>
       <tspan style="font: 8.4px 'DejaVu Sans'" x="40.403906 47.442187" y="-4.765625">−3</tspan>
      </text>
     </g>
    </g>
   </g>
   <g id="line2d_36">
    <path d="M 391.66661 231.402358 
L 391.577993 206.527969 
L 391.221788 203.701334 
L 391.441091 203.136007 
L 392.348682 202.005353 
L 393.944319 200.874699 
L 396.206579 199.744045 
L 399.597262 198.613391 
L 400.699887 198.048064 
L 401.542707 197.482737 
L 404.887491 195.786756 
L 406.329587 195.221429 
L 408.093329 194.656102 
L 410.398 194.090775 
L 411.900607 193.525448 
L 414.406545 191.26414 
L 415.359329 190.698813 
L 415.825341 190.133486 
L 415.72322 189.568159 
L 415.135046 189.002832 
L 412.298197 188.437505 
L 397.33763 186.741524 
L 382.054632 185.61087 
L 380.818088 185.045543 
L 381.473656 184.480216 
L 383.952952 183.349562 
L 386.059222 182.218908 
L 387.44471 181.088254 
L 387.572195 180.522927 
L 388.568588 179.9576 
L 392.547676 178.826946 
L 393.926841 178.261619 
L 398.979155 175.434984 
L 400.151156 174.30433 
L 400.651126 173.739003 
L 400.935441 173.173676 
L 400.601486 172.608349 
L 399.107332 172.043022 
L 395.940613 171.477695 
L 394.52579 170.912368 
L 393.616733 170.347041 
L 392.920676 169.781714 
L 392.006153 169.216386 
L 391.777318 168.085732 
L 390.645135 166.389751 
L 390.689141 165.259097 
L 390.182717 162.432462 
L 390.070949 161.301808 
L 390.566796 159.0405 
L 390.888008 157.909846 
L 391.373992 155.083211 
L 392.047225 153.38723 
L 392.176319 152.256576 
L 392.051887 151.125922 
L 392.267872 149.429941 
L 391.97921 147.73396 
L 391.871908 146.603306 
L 391.977143 146.037979 
L 392.633176 144.341998 
L 393.354189 140.384709 
L 393.430834 139.819382 
L 393.951654 138.688728 
L 394.071663 138.123401 
L 393.60404 133.600785 
L 393.93233 132.470131 
L 394.086194 131.904804 
L 393.995204 130.77415 
L 394.224921 129.643496 
L 394.93956 128.512842 
L 395.528729 127.947515 
L 395.753039 127.382187 
L 395.702018 126.81686 
L 395.786485 126.251533 
L 396.225545 125.120879 
L 396.511084 123.990225 
L 396.428646 123.424898 
L 396.560848 121.728917 
L 396.172263 121.16359 
L 395.391411 120.598263 
L 394.155296 120.032936 
L 391.517243 118.336955 
L 391.042096 117.771628 
L 391.857089 117.206301 
L 391.38415 116.640974 
L 392.433986 116.075647 
L 392.45609 115.51032 
L 391.987004 114.944993 
L 391.904664 114.379666 
L 392.036954 113.814339 
L 391.930326 112.118358 
L 391.389291 107.595742 
L 391.592039 107.030415 
L 392.268818 106.465088 
L 392.962311 105.334434 
L 393.194596 104.769107 
L 392.529615 104.20378 
L 385.868279 103.073126 
L 385.961826 101.942472 
L 385.690844 101.377145 
L 389.723038 100.811818 
L 390.407913 100.246491 
L 390.034539 99.115837 
L 389.706702 98.55051 
L 389.553644 97.419856 
L 389.770797 96.289202 
L 389.909119 95.158548 
L 390.334014 94.027894 
L 390.946592 91.201259 
L 391.051426 87.809297 
L 391.120603 85.547989 
L 391.297339 82.721353 
L 391.548687 75.937429 
L 391.866162 62.369581 
L 392.640289 50.497714 
L 392.731461 49.36706 
L 392.853726 47.105752 
L 392.976089 45.975098 
L 392.969953 44.844444 
L 392.899543 44.279117 
L 393.016575 43.71379 
L 393.610145 43.148463 
L 393.677238 40.321827 
L 393.699268 39.7565 
L 393.130758 38.060519 
L 392.723939 37.495192 
L 393.36809 36.929865 
L 393.80911 36.364538 
L 392.293083 35.799211 
L 391.595874 35.233884 
L 392.138278 34.10323 
L 393.329416 32.407249 
L 393.135434 31.841922 
L 393.130674 31.276595 
L 392.855596 30.711268 
L 393.215623 29.580614 
L 393.677609 27.319306 
L 392.923372 25.623325 
L 392.871303 25.057998 
L 391.858893 23.927344 
L 392.974289 23.362017 
L 392.974289 23.362017 
" clip-path="url(#p11ffe203da)" style="fill: none; stroke: #0000cc; stroke-width: 1.5; stroke-linecap: square"/>
   </g>
   <g id="line2d_37">
    <path d="M 353.183807 231.402358 
L 353.073891 207.093296 
L 352.899176 205.962642 
L 352.465127 204.831988 
L 351.80395 203.701334 
L 351.603514 203.136007 
L 351.532159 202.57068 
L 351.861375 202.005353 
L 353.570745 200.874699 
L 355.674788 199.744045 
L 356.553779 199.178718 
L 359.444342 196.352083 
L 359.714526 195.786756 
L 359.799484 195.221429 
L 359.540599 194.656102 
L 358.801994 194.090775 
L 357.427969 193.525448 
L 356.422676 192.960121 
L 355.820454 192.394794 
L 355.737303 191.829467 
L 356.168513 191.26414 
L 356.866968 190.698813 
L 358.812034 189.568159 
L 359.075738 189.002832 
L 358.315756 187.872178 
L 358.413563 186.741524 
L 358.272557 185.61087 
L 358.071033 185.045543 
L 357.613805 184.480216 
L 356.509511 183.914889 
L 356.35234 183.349562 
L 356.934207 182.784235 
L 357.7928 182.218908 
L 359.049481 181.653581 
L 361.611827 181.088254 
L 363.316107 180.522927 
L 364.619256 179.9576 
L 364.607871 179.392273 
L 363.982713 178.826946 
L 364.056162 178.261619 
L 365.458284 176.000311 
L 365.85596 174.869657 
L 366.00047 173.739003 
L 366.642975 170.347041 
L 367.431127 166.389751 
L 367.387684 164.128443 
L 367.281592 158.475173 
L 367.704208 154.517884 
L 367.854528 153.38723 
L 368.659083 149.995268 
L 369.46464 147.168633 
L 369.974063 145.472652 
L 370.700347 143.211344 
L 371.623068 140.950036 
L 374.493058 134.731439 
L 375.583718 133.035458 
L 377.689439 130.208823 
L 378.240653 129.078169 
L 379.033106 126.81686 
L 379.758686 125.686206 
L 381.167832 123.990225 
L 381.476814 123.424898 
L 382.369756 122.294244 
L 382.755475 121.728917 
L 383.883463 120.598263 
L 384.90726 119.467609 
L 386.502121 118.902282 
L 388.432541 118.336955 
L 389.293702 117.771628 
L 388.086695 117.206301 
L 386.611721 116.640974 
L 386.164515 116.075647 
L 386.503501 115.51032 
L 386.7315 114.379666 
L 387.93142 109.85705 
L 388.217691 109.291723 
L 389.1926 108.161069 
L 391.519204 105.899761 
L 392.383773 105.334434 
L 393.467994 104.769107 
L 395.724361 104.20378 
L 397.188934 103.638453 
L 396.462646 103.073126 
L 386.397811 101.377145 
L 384.694586 100.811818 
L 383.849577 100.246491 
L 384.275647 99.681164 
L 384.242012 99.115837 
L 384.581246 98.55051 
L 384.064224 97.985183 
L 383.212519 94.593221 
L 382.951824 93.462567 
L 383.050875 92.331913 
L 383.716626 91.201259 
L 384.944866 90.070605 
L 387.538729 88.374624 
L 390.184908 86.678643 
L 391.500749 85.547989 
L 392.489347 84.417334 
L 393.892583 82.156026 
L 394.593181 80.460045 
L 395.20266 78.198737 
L 395.635263 75.372102 
L 395.950022 71.414813 
L 396.051983 67.457524 
L 396.100644 60.6736 
L 396.289289 47.105752 
L 396.240421 46.540425 
L 396.327587 45.975098 
L 397.698494 43.71379 
L 397.684288 43.148463 
L 396.645481 40.321827 
L 396.323656 39.191173 
L 396.364129 38.625846 
L 398.181936 38.060519 
L 398.955142 37.495192 
L 398.369975 36.929865 
L 393.944442 35.799211 
L 393.541715 35.233884 
L 392.529842 34.668557 
L 392.06219 34.10323 
L 392.19231 33.537903 
L 392.96295 32.407249 
L 393.211476 31.841922 
L 393.338557 31.276595 
L 393.818525 30.145941 
L 394.37848 27.319306 
L 394.103671 26.753979 
L 394.098727 26.188652 
L 393.649565 25.623325 
L 393.439686 25.057998 
L 392.989839 24.492671 
L 383.571045 23.927344 
L 383.571045 23.927344 
" clip-path="url(#p11ffe203da)" style="fill: none; stroke: #00cc00; stroke-width: 1.5; stroke-linecap: square"/>
   </g>
   <g id="line2d_38">
    <path d="M 392.518309 241.804375 
L 392.518309 12.96 
" clip-path="url(#p11ffe203da)" style="fill: none; stroke: #000000; stroke-width: 1.5; stroke-linecap: square"/>
   </g>
   <g id="patch_13">
    <path d="M 348.3175 241.804375 
L 348.3175 12.96 
" style="fill: none; stroke: #000000; stroke-width: 0.8; stroke-linejoin: miter; stroke-linecap: square"/>
   </g>
   <g id="patch_14">
    <path d="M 419.04 241.804375 
L 419.04 12.96 
" style="fill: none; stroke: #000000; stroke-width: 0.8; stroke-linejoin: miter; stroke-linecap: square"/>
   </g>
   <g id="patch_15">
    <path d="M 348.3175 241.804375 
L 419.04 241.804375 
" style="fill: none; stroke: #000000; stroke-width: 0.8; stroke-linejoin: miter; stroke-linecap: square"/>
   </g>
   <g id="patch_16">
    <path d="M 348.3175 12.96 
L 419.04 12.96 
" style="fill: none; stroke: #000000; stroke-width: 0.8; stroke-linejoin: miter; stroke-linecap: square"/>
   </g>
  </g>
 </g>
 <defs>
  <clipPath id="p542ffcd0ef">
   <rect x="58.43375" y="12.96" width="70.7225" height="228.844375"/>
  </clipPath>
  <clipPath id="p80b13c99c8">
   <rect x="203.375625" y="12.96" width="70.7225" height="228.844375"/>
  </clipPath>
  <clipPath id="p11ffe203da">
   <rect x="348.3175" y="12.96" width="70.7225" height="228.844375"/>
  </clipPath>
 </defs>
</svg>
